<?xml version="1.0" encoding="UTF-8" standalone="no"?><svg xmlns="http://www.w3.org/2000/svg" xmlns:xlink="http://www.w3.org/1999/xlink" contentScriptType="application/ecmascript" contentStyleType="text/css" height="110px" preserveAspectRatio="none" style="width:445px;height:110px;" version="1.1" viewBox="0 0 445 110" width="445px" zoomAndPan="magnify"><defs/><g><ellipse cx="120.2487" cy="25.242" fill="#F8F8F8" rx="27.7487" ry="13.242" style="stroke: #383838; stroke-width: 0.5;"/><text fill="#000000" font-family="Tahoma, sans-serif" font-size="12" font-weight="bold" lengthAdjust="spacingAndGlyphs" textLength="35" x="102.7487" y="28.9842">index</text><ellipse cx="276.7601" cy="82.052" fill="#F8F8F8" rx="60.7601" ry="14.552" style="stroke: #383838; stroke-width: 0.5;"/><text fill="#000000" font-family="Tahoma, sans-serif" font-size="12" lengthAdjust="spacingAndGlyphs" textLength="90" x="231.7601" y="85.7942">lib/jsonStringify</text><!--MD5=[10767f21b17535f201050a554f805dcb]
entity _lib_StackUtils--><rect fill="#F8F8F8" height="34.4844" rx="3" ry="3" style="stroke: #000000; stroke-width: 0.5;" width="95" x="108.5" y="65"/><text fill="#000000" font-family="Tahoma, sans-serif" font-size="12" lengthAdjust="spacingAndGlyphs" textLength="75" x="118.5" y="87.0059">lib/StackUtils</text><!--MD5=[aa4d85df1eb54bb4e054dd437273744c]
entity _lib_terminal--><rect fill="#F8F8F8" height="34.4844" rx="3" ry="3" style="stroke: #000000; stroke-width: 0.5;" width="84" x="350" y="65"/><text fill="#000000" font-family="Tahoma, sans-serif" font-size="12" lengthAdjust="spacingAndGlyphs" textLength="64" x="360" y="87.0059">lib/terminal</text><!--MD5=[a2e1305be26d0974812b23e3695c535a]
entity _src_Log--><rect fill="#F8F8F8" height="34.4844" rx="3" ry="3" style="stroke: #000000; stroke-width: 0.5;" width="64" x="160" y="8"/><text fill="#000000" font-family="Tahoma, sans-serif" font-size="12" lengthAdjust="spacingAndGlyphs" textLength="44" x="170" y="30.0059">src/Log</text><!--MD5=[71e85ee5e8cfd63cb102a78fb2a368e6]
entity _src_logLevel--><rect fill="#F8F8F8" height="34.4844" rx="3" ry="3" style="stroke: #000000; stroke-width: 0.5;" width="90" x="6" y="65"/><text fill="#000000" font-family="Tahoma, sans-serif" font-size="12" lengthAdjust="spacingAndGlyphs" textLength="70" x="16" y="87.0059">src/logLevel</text><!--MD5=[c3a4d1321e17620ae323cb87a92e8649]
link <b>index</b> to _lib_StackUtils--><path d="M127.635,37.6641 C132.023,44.3687 137.659,52.9784 142.748,60.7546 " fill="none" id="&lt;b&gt;index&lt;/b&gt;-&gt;_lib_StackUtils" style="stroke: #000000; stroke-width: 1.0;"/><polygon fill="#000000" points="145.509,64.9716,143.9277,55.2505,142.7711,60.7879,137.2337,59.6312,145.509,64.9716" style="stroke: #000000; stroke-width: 1.0;"/><!--MD5=[90e14389ce406e1c52f70db0589b5bc6]
link <b>index</b> to _src_Log--><path d="M147.562,25 C149.841,25 152.119,25 154.397,25 " fill="none" id="&lt;b&gt;index&lt;/b&gt;-&gt;_src_Log" style="stroke: #000000; stroke-width: 1.0;"/><polygon fill="#000000" points="159.713,25,150.713,21,154.713,25,150.713,29,159.713,25" style="stroke: #000000; stroke-width: 1.0;"/><!--MD5=[3cd32de05124ed8c8c345e1a9e1cc42b]
link <b>index</b> to _src_logLevel--><path d="M106.696,36.6046 C97.8456,43.6593 85.9567,53.136 75.4361,61.522 " fill="none" id="&lt;b&gt;index&lt;/b&gt;-&gt;_src_logLevel" style="stroke: #000000; stroke-width: 1.0;"/><polygon fill="#000000" points="71.3291,64.7957,80.8601,62.3138,75.239,61.6791,75.8736,56.058,71.3291,64.7957" style="stroke: #000000; stroke-width: 1.0;"/><!--MD5=[3c8a3327999baa09c73883cd81e899f2]
link _src_Log to lib/jsonStringify--><path d="M217.043,42.2043 C228.37,49.5334 241.699,58.158 252.909,65.412 " fill="none" id="_src_Log-&gt;lib/jsonStringify" style="stroke: #000000; stroke-width: 0.5;"/><polygon fill="#000000" points="257.252,68.222,251.8681,59.975,253.0539,65.5061,247.5227,66.6919,257.252,68.222" style="stroke: #000000; stroke-width: 0.5;"/><!--MD5=[87d9fea186968fc2d3a1356334190654]
link _src_Log to _lib_StackUtils--><path d="M181.394,42.2043 C177.691,47.8604 173.484,54.2881 169.574,60.262 " fill="none" id="_src_Log-&gt;_lib_StackUtils" style="stroke: #000000; stroke-width: 0.5;"/><polygon fill="#000000" points="166.655,64.7214,174.9303,59.381,169.3929,60.5377,168.2363,55.0003,166.655,64.7214" style="stroke: #000000; stroke-width: 0.5;"/><!--MD5=[076c92b02796027387cd053baf3aa676]
link _src_Log to _lib_terminal--><path d="M224.206,33.5642 C255.097,40.9841 302.97,52.9144 344,65 C344.363,65.107 344.728,65.215 345.094,65.3238 " fill="none" id="_src_Log-&gt;_lib_terminal" style="stroke: #000000; stroke-width: 0.5;"/><polygon fill="#000000" points="349.909,66.7829,342.4558,60.3448,345.1239,65.3329,340.1358,68.001,349.909,66.7829" style="stroke: #000000; stroke-width: 0.5;"/><!--MD5=[d625937f6d5170df977be5a6031639e4]
link _src_Log to _src_logLevel--><path d="M159.677,39.331 C157.42,40.2403 155.177,41.1373 153,42 C135.278,49.022 115.743,56.5443 98.5518,63.0906 " fill="none" id="_src_Log-&gt;_src_logLevel" style="stroke: #000000; stroke-width: 0.5;"/><polygon fill="#000000" points="93.7687,64.9099,103.6028,65.4487,98.442,63.1322,100.7585,57.9714,93.7687,64.9099" style="stroke: #000000; stroke-width: 0.5;"/><script type="text/plantuml"><![CDATA[MD5=[e9588571982ad5b43a948e2cd9e7fff2]
@startuml

scale max 1920 width
top to bottom direction

skinparam nodesep 12
skinparam ranksep 23
skinparam monochrome true
skinparam shadowing false
skinparam defaultFontName Tahoma
skinparam defaultFontSize 12
skinparam roundCorner 6
skinparam dpi 150
skinparam arrowColor black
skinparam arrowThickness 0.5
skinparam packageTitleAlignment left

skinparam usecase {
  borderThickness 0.5
}

skinparam rectangle {
  borderThickness 0.5
}

skinparam component {
  borderThickness 1
}


(<b>index</b>)
(lib/jsonStringify)
rectangle "lib/StackUtils" as _lib_StackUtils
rectangle "lib/terminal" as _lib_terminal
rectangle "src/Log" as _src_Log
rectangle "src/logLevel" as _src_logLevel


(<b>index</b>) --[thickness=1]> _lib_StackUtils
(<b>index</b>) -[thickness=1]> _src_Log
(<b>index</b>) -[thickness=1]> _src_logLevel
_src_Log --> (lib/jsonStringify)
_src_Log --> _lib_StackUtils
_src_Log --> _lib_terminal
_src_Log --> _src_logLevel

@enduml


' View and edit on https://arkit.pro
]]></script></g></svg>